<svg width="37" height="37" viewBox="0 0 37 37" fill="none" xmlns="http://www.w3.org/2000/svg">
<path d="M18.5001 2.89062C15.8092 2.8914 13.1641 3.5876 10.8216 4.91169C8.47898 6.23578 6.51835 8.14281 5.12986 10.4478C3.74137 12.7528 2.97215 15.3775 2.89681 18.0674C2.82147 20.7572 3.44257 23.4209 4.69987 25.8L3.52922 29.8974C3.3876 30.393 3.3811 30.9175 3.5104 31.4165C3.63969 31.9156 3.90009 32.3709 4.26459 32.7354C4.6291 33.0999 5.08445 33.3603 5.58346 33.4896C6.08246 33.6189 6.60698 33.6125 7.10263 33.4708L11.2002 32.3002C13.2952 33.4083 15.615 34.0248 17.9837 34.103C20.3524 34.1813 22.7078 33.7192 24.8713 32.7517C27.0348 31.7843 28.9497 30.3369 30.4706 28.5194C31.9916 26.7019 33.0788 24.5619 33.6497 22.2617C34.2206 19.9615 34.2603 17.5615 33.7658 15.2437C33.2713 12.9259 32.2555 10.7511 30.7955 8.8843C29.3355 7.01745 27.4695 5.50754 25.3392 4.46906C23.2089 3.43058 20.87 2.89079 18.5001 2.89062ZM18.5001 30.6406C16.32 30.6423 14.1799 30.0559 12.3051 28.9434C12.1019 28.8225 11.8762 28.7445 11.6418 28.7141C11.4073 28.6836 11.1692 28.7014 10.9419 28.7664L7.15034 29.8497L8.23355 26.0581C8.29847 25.8309 8.31627 25.5928 8.28585 25.3584C8.25542 25.124 8.17742 24.8984 8.05662 24.6952C6.68935 22.3913 6.12243 19.6999 6.44418 17.0402C6.76593 14.3805 7.95827 11.9019 9.83549 9.99047C11.7127 8.07905 14.1694 6.84213 16.8228 6.47241C19.4763 6.10269 22.1775 6.62091 24.5057 7.94636C26.834 9.27181 28.6585 11.3301 29.695 13.8005C30.7316 16.2709 30.922 19.0148 30.2366 21.6047C29.5512 24.1947 28.0285 26.4852 25.9057 28.1195C23.7829 29.7539 21.1791 30.6403 18.5001 30.6406ZM25.7685 18.9885L23.9834 17.9175C23.5668 17.6662 23.0933 17.5246 22.6072 17.5059C22.121 17.4873 21.638 17.5922 21.2034 17.8108L20.4872 18.169C19.7607 17.8244 19.1757 17.2393 18.8311 16.5128L19.1893 15.7964C19.408 15.3618 19.5129 14.8789 19.4942 14.3927C19.4755 13.9066 19.3339 13.4331 19.0825 13.0166L18.0114 11.2314C17.7535 10.8044 17.39 10.451 16.9559 10.2052C16.5218 9.95944 16.0317 9.82957 15.5329 9.82812H15.0312C13.664 9.82546 12.3509 10.3621 11.3768 11.3216C10.4027 12.281 9.84637 13.5859 9.8284 14.9531C9.81808 16.5538 10.1244 18.1409 10.7299 19.6228C11.3353 21.1047 12.2278 22.4522 13.356 23.5879C14.4843 24.7235 15.826 25.6248 17.3039 26.2399C18.7818 26.855 20.3668 27.1717 21.9676 27.1719C21.994 27.1719 22.0205 27.1717 22.0468 27.1716C23.414 27.1537 24.7189 26.5973 25.6784 25.6232C26.6379 24.6492 27.1745 23.336 27.1719 21.9688V21.4671C27.1705 20.9682 27.0406 20.4781 26.7948 20.044C26.549 19.6099 26.1955 19.2464 25.7685 18.9885ZM23.7031 21.9688C23.708 22.4205 23.5345 22.8559 23.2203 23.1806C22.9062 23.5052 22.4766 23.6929 22.025 23.7028C22.006 23.703 21.9874 23.7031 21.9684 23.703C20.8249 23.703 19.6927 23.4768 18.6369 23.0375C17.5812 22.5982 16.6228 21.9544 15.8168 21.1432C15.0109 20.332 14.3733 19.3694 13.9409 18.3108C13.5084 17.2522 13.2896 16.1186 13.297 14.9751C13.3071 14.5234 13.4948 14.0939 13.8194 13.7798C14.1441 13.4656 14.5795 13.2921 15.0312 13.2969H15.2056L15.9448 14.5291L15.3966 15.625C15.2058 16.0065 15.1623 16.4449 15.2743 16.8564C15.5938 18.0206 16.2108 19.0817 17.0645 19.9354C17.9182 20.7891 18.9793 21.406 20.1436 21.7256C20.555 21.8374 20.9932 21.7939 21.3746 21.6033L22.4709 21.0551L23.7031 21.7946V21.9688Z" fill="black"/>
</svg>
