<svg width="50" height="49" viewBox="0 0 50 49" fill="none" xmlns="http://www.w3.org/2000/svg">
<path d="M16.625 41.7075H12.0625C10.5 41.7075 9.1875 40.4212 9.1875 38.89V28.845H7.875C6.3125 28.845 5 27.5587 5 26.0275V22.23C5 20.6987 6.3125 19.4125 7.875 19.4125H9.25V18.1875C9.25 12.5525 12.5625 9 17.9375 9C19.8125 9 21.4375 9.1225 22.125 9.18375C23.5625 9.3675 24.625 10.5925 24.625 12.0012V15.7987C24.625 17.33 23.3125 18.6162 21.75 18.6162H19.625V19.4125H21.625C23.1875 19.4125 24.5 20.6987 24.5 22.23C24.5 22.4137 24.5 22.5362 24.4375 22.72L23.8125 26.395C23.625 27.7425 22.375 28.7837 20.9375 28.7837H19.625V38.8287C19.5625 40.4212 18.25 41.7075 16.625 41.7075ZM7.875 21.985C7.75 21.985 7.625 22.1075 7.625 22.23V26.0275C7.625 26.15 7.75 26.2725 7.875 26.2725H10.5625C11.3125 26.2725 11.875 26.8237 11.875 27.5587V38.8287C11.875 38.9512 12 39.0737 12.125 39.0737H16.6875C16.8125 39.0737 16.9375 38.9512 16.9375 38.8287V27.5587C16.9375 26.8237 17.5 26.2725 18.25 26.2725H20.875C21 26.2725 21.125 26.15 21.125 26.0275L21.75 22.23C21.75 22.1075 21.625 21.985 21.5 21.985H18.1875C17.4375 21.985 16.875 21.4337 16.875 20.6987V18.1262C16.875 17.575 16.9375 17.2075 17.0625 16.9012C17.1875 16.595 17.375 16.4112 17.6875 16.2887C18 16.105 18.4375 16.0437 19.0625 16.0437H21.6875C21.8125 16.0437 21.9375 15.9212 21.9375 15.7987V12.0012C21.9375 11.8787 21.8125 11.7562 21.6875 11.7562C21.1875 11.695 19.625 11.5725 17.875 11.5725C12.625 11.5725 11.8125 15.7375 11.8125 18.1875V20.6987C11.8125 21.4337 11.25 21.985 10.5 21.985H7.875Z" fill="black"/>
</svg>
