<svg width="33" height="38" viewBox="0 0 33 38" fill="none" xmlns="http://www.w3.org/2000/svg">
<path d="M30.25 4.75H2.75C2.38533 4.75 2.03559 4.91681 1.77773 5.21375C1.51987 5.51068 1.375 5.91341 1.375 6.33333V31.6667C1.375 32.0866 1.51987 32.4893 1.77773 32.7863C2.03559 33.0832 2.38533 33.25 2.75 33.25H30.25C30.6147 33.25 30.9644 33.0832 31.2223 32.7863C31.4801 32.4893 31.625 32.0866 31.625 31.6667V6.33333C31.625 5.91341 31.4801 5.51068 31.2223 5.21375C30.9644 4.91681 30.6147 4.75 30.25 4.75ZM28.875 30.0833H4.125V15.0053L15.9885 20.4709C16.3171 20.6208 16.6829 20.6208 17.0115 20.4709L28.875 15.0053V30.0833ZM28.875 11.5948L16.5 17.2948L4.125 11.5948V7.91667H28.875V11.5948Z" fill="black"/>
</svg>
