<svg width="30" height="30" viewBox="0 0 30 30" fill="none" xmlns="http://www.w3.org/2000/svg">
<path d="M24.8084 6.9941V6.9951C24.8084 7.9894 24.0022 8.79464 23.0089 8.79464C22.0156 8.79464 21.2094 7.9884 21.2094 6.9951C21.2094 6.0008 22.0156 5.19556 23.0089 5.19556C24.0022 5.19656 24.8074 6.0008 24.8084 6.9941ZM15.0005 20.001C12.2387 20.001 10 17.7623 10 15.0005C10 12.2387 12.2387 10 15.0005 10C17.7623 10 20.001 12.2387 20.001 15.0005C20.001 17.7613 17.7633 20 15.0025 20H15.0015L15.0005 20.001ZM15.0005 7.29819C10.7462 7.29819 7.29819 10.7472 7.29819 15.0005C7.29819 19.2538 10.7472 22.7028 15.0005 22.7028C19.2548 22.7028 22.7028 19.2538 22.7028 15.0005C22.7028 15.0005 22.7028 15.0005 22.7028 14.9995C22.7028 10.7462 19.2548 7.29719 15.0005 7.29719C15.0005 7.29719 15.0005 7.29719 14.9995 7.29719L15.0005 7.29819ZM15.0005 2.70081C19.0047 2.70081 19.4818 2.72082 21.0633 2.78984C22.0666 2.80184 23.0209 2.9919 23.9042 3.328L23.8472 3.30899C25.1615 3.82115 26.1819 4.84145 26.683 6.12184L26.695 6.15585C27.0111 6.98209 27.1992 7.93738 27.2112 8.93468V8.93968C27.2822 10.5222 27.2982 10.9973 27.2982 15.0025C27.2982 19.0077 27.2792 19.4838 27.2062 21.0653C27.1872 22.0696 26.9961 23.0239 26.661 23.9072L26.68 23.8492C26.4219 24.5254 26.0398 25.1015 25.5567 25.5757L25.5557 25.5767C25.0825 26.0608 24.5064 26.4429 23.8632 26.686L23.8311 26.697C23.0019 27.0131 22.0436 27.2012 21.0423 27.2132H21.0373C19.4448 27.2842 18.9757 27.3002 14.9635 27.3002C10.9493 27.3002 10.4811 27.2812 8.88967 27.2082C7.88136 27.1892 6.92308 26.9981 6.03581 26.663L6.09483 26.682C5.41863 26.4279 4.84245 26.0448 4.37231 25.5597L4.37131 25.5587C3.88216 25.0885 3.49805 24.5114 3.25698 23.8652L3.24697 23.8341C2.93188 23.0059 2.74082 22.0486 2.72182 21.0483V21.0403C2.6658 19.4648 2.64579 18.9787 2.64579 14.9855C2.64579 10.9903 2.6658 10.5032 2.72182 8.90867C2.74082 7.90137 2.93088 6.94408 3.26598 6.05782L3.24697 6.11683C3.49405 5.43763 3.87916 4.85946 4.37031 4.39232L4.37231 4.39032C4.84045 3.89817 5.41762 3.51505 6.06482 3.27798L6.09583 3.26798C6.91908 2.94988 7.87036 2.75883 8.86466 2.74182H8.87166C10.4651 2.68581 10.9343 2.6668 14.9455 2.6668L15.0005 2.70081ZM15.0005 0C10.9253 0 10.4171 0.0190057 8.81664 0.090027C7.50125 0.118035 6.25388 0.372112 5.09953 0.813244L5.17555 0.788237C4.13524 1.18536 3.24897 1.77453 2.51876 2.51675L2.51776 2.51776C1.77253 3.24797 1.18436 4.13524 0.804241 5.12554L0.787236 5.17555C0.371111 6.25388 0.117035 7.50225 0.090027 8.80464V8.81664C0.0150045 10.4171 0 10.9253 0 15.0005C0 19.0757 0.0190057 19.5839 0.090027 21.1844C0.118035 22.4997 0.372112 23.7471 0.813244 24.9015L0.788237 24.8254C1.58448 26.8471 3.15395 28.4165 5.12354 29.1948L5.17555 29.2128C6.25388 29.6279 7.50225 29.882 8.80464 29.91H8.81664C10.4171 29.985 10.9253 30 15.0005 30C19.0757 30 19.5839 29.981 21.1844 29.91C22.4997 29.881 23.7471 29.6279 24.9015 29.1868L24.8254 29.2128C26.8471 28.4165 28.4165 26.8471 29.1948 24.8775L29.2128 24.8254C29.6289 23.7471 29.882 22.4987 29.91 21.1964V21.1844C29.985 19.5839 30 19.0757 30 15.0005C30 10.9253 29.981 10.4171 29.91 8.81664C29.881 7.50125 29.6279 6.25388 29.1868 5.09953L29.2128 5.17555C28.8146 4.13524 28.2265 3.24897 27.4832 2.51876L27.4822 2.51776C26.752 1.77253 25.8648 1.18436 24.8745 0.804241L24.8244 0.787236C23.7461 0.371111 22.4977 0.117035 21.1954 0.090027H21.1834C19.5829 0.0150045 19.0747 0 14.9995 0H15.0005Z" fill="black"/>
</svg>
